<?xml version="1.0" encoding="UTF-8" standalone="no"?>
<!DOCTYPE svg PUBLIC "-//W3C//DTD SVG 1.1//EN" "http://www.w3.org/Graphics/SVG/1.1/DTD/svg11.dtd">
<svg width="100%" height="100%" viewBox="0 0 150 150" version="1.1" xmlns="http://www.w3.org/2000/svg" xmlns:xlink="http://www.w3.org/1999/xlink" xml:space="preserve" xmlns:serif="http://www.serif.com/" style="fill-rule:evenodd;clip-rule:evenodd;stroke-linejoin:round;stroke-miterlimit:1.5;">
    <g transform="matrix(1,0,0,1,-616.918,-574.281)">
        <g transform="matrix(0.433872,0,0,0.819427,353.108,278.027)">
            <rect id="NeO" x="608.037" y="361.538" width="345.724" height="183.055" style="fill:none;"/>
            <g id="NeO1" serif:id="NeO">
                <g transform="matrix(4.0512,0,0,2.52509,-2334.39,-712.758)">
                    <g transform="matrix(0.665363,0,0,0.565218,354.707,100.752)">
                        <path d="M660.421,585.993C658.117,586.358 656.052,587.624 654.681,589.512C643.654,604.691 593.411,673.852 583.459,687.552C582.354,689.072 580.725,690.129 578.886,690.517C574.247,691.497 565.588,693.325 565.588,693.325L568.354,624.126L577.944,604.87L590.19,603.613L612.233,626.236L648.595,674.325L664.71,675.853L676.872,657.351L673.091,583.984C673.091,583.984 665.213,585.233 660.421,585.993Z"/>
                    </g>
                    <g transform="matrix(1,0,0,0.988245,80.0322,0.129)">
                        <path d="M660.371,491.592L660.373,491.602C660.854,494.186 658.952,496.658 656.007,497.286C654.638,497.585 653.35,497.859 653.35,497.859L650.996,498.361L650.563,496.309C650.563,496.309 645.558,472.432 648.539,457.22C650.237,448.558 654.763,442.618 661.778,441.586C666.474,440.894 671.405,442.651 676.213,446.509C681.626,450.853 687.158,458.029 692.617,465.218C697.527,471.684 702.36,478.168 707.158,481.972C708.274,482.857 709.353,483.6 710.434,484.056C711.195,484.377 711.94,484.552 712.698,484.41C714.781,484.019 716.351,483.299 717.432,482.183C719.262,480.29 719.723,477.536 719.762,474.437C719.882,464.868 715.348,452.505 713.18,443.067L713.176,443.042C712.572,440.002 714.901,437.105 718.413,436.517C719.403,436.348 720.177,436.218 720.177,436.218L722.524,435.825L722.865,437.859C724.565,448.008 730.455,463.18 730.313,474.554C730.24,480.357 728.672,485.312 725.244,488.856C722.82,491.361 719.451,493.251 714.777,494.129C710.107,495.006 705.175,493.379 700.345,489.55C695.001,485.313 689.495,478.186 684.027,470.985C679.109,464.507 674.228,457.962 669.351,454.049C668.185,453.113 667.052,452.325 665.914,451.827C665.078,451.461 664.257,451.254 663.42,451.378C662.193,451.558 661.41,452.354 660.778,453.402C659.879,454.893 659.338,456.866 658.916,459.024C656.807,469.784 659.23,485.334 660.371,491.592Z"/>
                    </g>
                    <g transform="matrix(1,0,0,0.988245,80.0322,0.129)">
                        <path d="M655.737,495.335C655.737,495.335 645.844,448.949 662.599,446.482C679.354,444.015 697.394,492.338 713.737,489.269C734.856,485.304 720.424,455.173 717.654,438.633" style="fill:none;stroke:rgb(248,198,3);stroke-width:4.98px;"/>
                    </g>
                </g>
            </g>
        </g>
    </g>
</svg>
