<?xml version="1.0" encoding="UTF-8" standalone="no"?>
<!DOCTYPE svg PUBLIC "-//W3C//DTD SVG 1.1//EN" "http://www.w3.org/Graphics/SVG/1.1/DTD/svg11.dtd">
<svg width="100%" height="100%" viewBox="0 0 650 150" version="1.1" xmlns="http://www.w3.org/2000/svg" xmlns:xlink="http://www.w3.org/1999/xlink" xml:space="preserve" xmlns:serif="http://www.serif.com/" style="fill-rule:evenodd;clip-rule:evenodd;stroke-linejoin:round;stroke-miterlimit:1.5;">
    <g transform="matrix(1,0,0,1,-437.336,-778.058)">
        <g transform="matrix(1.87845,0,0,0.819427,-704.831,481.804)">
            <rect id="NeO" x="608.037" y="361.538" width="345.724" height="183.055" style="fill:none;"/>
            <g id="NeO1" serif:id="NeO">
                <g transform="matrix(0.935719,0,0,2.52509,-71.5858,-712.758)">
                    <g transform="matrix(0.665363,0,0,0.565218,354.707,100.752)">
                        <path d="M660.421,585.993C658.117,586.358 656.052,587.624 654.681,589.512C643.654,604.691 593.411,673.852 583.459,687.552C582.354,689.072 580.725,690.129 578.886,690.517C574.247,691.497 565.588,693.325 565.588,693.325L568.354,624.126L577.944,604.87L590.19,603.613L612.233,626.236L648.595,674.325L664.71,675.853L676.872,657.351L673.091,583.984C673.091,583.984 665.213,585.233 660.421,585.993Z"/>
                    </g>
                    <g transform="matrix(1,0,0,0.988245,80.0322,0.129)">
                        <path d="M660.371,491.592L660.373,491.602C660.854,494.186 658.952,496.658 656.007,497.286C654.638,497.585 653.35,497.859 653.35,497.859L650.996,498.361L650.563,496.309C650.563,496.309 645.558,472.432 648.539,457.22C650.237,448.558 654.763,442.618 661.778,441.586C666.474,440.894 671.405,442.651 676.213,446.509C681.626,450.853 687.158,458.029 692.617,465.218C697.527,471.684 702.36,478.168 707.158,481.972C708.274,482.857 709.353,483.6 710.434,484.056C711.195,484.377 711.94,484.552 712.698,484.41C714.781,484.019 716.351,483.299 717.432,482.183C719.262,480.29 719.723,477.536 719.762,474.437C719.882,464.868 715.348,452.505 713.18,443.067L713.176,443.042C712.572,440.002 714.901,437.105 718.413,436.517C719.403,436.348 720.177,436.218 720.177,436.218L722.524,435.825L722.865,437.859C724.565,448.008 730.455,463.18 730.313,474.554C730.24,480.357 728.672,485.312 725.244,488.856C722.82,491.361 719.451,493.251 714.777,494.129C710.107,495.006 705.175,493.379 700.345,489.55C695.001,485.313 689.495,478.186 684.027,470.985C679.109,464.507 674.228,457.962 669.351,454.049C668.185,453.113 667.052,452.325 665.914,451.827C665.078,451.461 664.257,451.254 663.42,451.378C662.193,451.558 661.41,452.354 660.778,453.402C659.879,454.893 659.338,456.866 658.916,459.024C656.807,469.784 659.23,485.334 660.371,491.592Z"/>
                    </g>
                    <g transform="matrix(1,0,0,0.988245,80.0322,0.129)">
                        <path d="M655.737,495.335C655.737,495.335 645.844,448.949 662.599,446.482C679.354,444.015 697.394,492.338 713.737,489.269C734.856,485.304 720.424,455.173 717.654,438.633" style="fill:none;stroke:rgb(248,198,3);stroke-width:4.98px;"/>
                    </g>
                </g>
                <g transform="matrix(0.460642,-0.210414,0.10375,1.19359,302.159,90.469)">
                    <g transform="matrix(1.04425,1.11022e-16,-1.11022e-16,1.03198,54.2264,-18.5929)">
                        <path d="M724.816,424.25C743.744,424.25 759.392,439.396 759.392,458.324C759.392,477.252 743.744,492.398 724.816,492.398C705.888,492.398 690.24,477.252 690.24,458.324C690.24,439.396 705.888,424.25 724.816,424.25ZM724.816,431.962C710.388,431.963 698.957,443.896 698.957,458.324C698.957,472.752 710.388,484.685 724.816,484.685C739.244,484.685 750.675,472.752 750.675,458.324C750.675,443.896 739.244,431.963 724.816,431.962Z"/>
                    </g>
                    <g transform="matrix(1.04425,0,0,1.03198,54.2264,-18.5929)">
                        <circle cx="724.816" cy="458.324" r="30.218" style="stroke:rgb(248,198,3);stroke-width:5.3px;"/>
                    </g>
                </g>
                <g transform="matrix(0.48838,0,0,1.13288,328.455,-42.4695)">
                    <g transform="matrix(1,0,0,0.988245,80.0322,0.129)">
                        <path d="M672.944,480.97C674.419,482.22 676.327,482.974 678.41,482.974C683.08,482.974 686.872,479.183 686.872,474.512C686.872,473.79 687.458,473.204 688.18,473.204L694.598,473.204C695.321,473.204 695.906,473.79 695.906,474.512C695.906,484.169 688.066,492.009 678.41,492.009C668.753,492.009 660.914,484.169 660.914,474.512C660.914,464.856 668.753,457.016 678.41,457.016C683.003,457.016 687.185,458.789 690.308,461.688C690.568,461.93 690.719,462.267 690.726,462.622C690.732,462.978 690.594,463.32 690.343,463.572L672.944,480.97ZM679.054,466.074C678.841,466.058 678.627,466.05 678.41,466.05C673.739,466.05 669.948,469.842 669.948,474.512C669.948,474.729 669.956,474.944 669.972,475.156L679.054,466.074Z"/>
                    </g>
                    <g transform="matrix(1,0,0,0.988245,80.0322,0.129)">
                        <path d="M671.087,480.977C672.878,483.004 675.496,484.283 678.41,484.283C683.802,484.283 688.18,479.905 688.18,474.512L694.598,474.512C694.598,483.447 687.344,490.701 678.41,490.701C669.475,490.701 662.222,483.447 662.222,474.512C662.222,465.578 669.475,458.324 678.41,458.324C682.659,458.324 686.528,459.965 689.418,462.647L671.087,480.977ZM681.675,465.302C680.654,464.939 679.555,464.742 678.41,464.742C673.018,464.742 668.64,469.12 668.64,474.512C668.64,475.657 668.837,476.756 669.2,477.778L681.675,465.302Z" style="fill:rgb(248,198,3);"/>
                    </g>
                    <g transform="matrix(1,0,0,0.988245,80.0322,0.129)">
                        <path d="M671.087,480.977C672.878,483.004 675.496,484.283 678.41,484.283C683.802,484.283 688.18,479.905 688.18,474.512L694.598,474.512C694.598,483.447 687.344,490.701 678.41,490.701C669.475,490.701 662.222,483.447 662.222,474.512C662.222,465.578 669.475,458.324 678.41,458.324C682.659,458.324 686.528,459.965 689.418,462.647L671.087,480.977ZM681.675,465.302C680.654,464.939 679.555,464.742 678.41,464.742C673.018,464.742 668.64,469.12 668.64,474.512C668.64,475.657 668.837,476.756 669.2,477.778L681.675,465.302Z" style="fill:rgb(248,198,3);"/>
                    </g>
                    <g transform="matrix(1,0,0,0.988245,80.0322,0.129)">
                        <path d="M688.18,474.512L694.598,474.512C694.598,483.447 687.344,490.701 678.41,490.701C669.475,490.701 662.222,483.447 662.222,474.512C662.222,465.578 669.475,458.324 678.41,458.324C682.659,458.324 686.528,459.965 689.418,462.647L684.875,467.189C683.948,466.37 682.865,465.724 681.675,465.302C680.654,464.939 679.555,464.742 678.41,464.742C673.018,464.742 668.64,469.12 668.64,474.512C668.64,475.657 668.837,476.756 669.2,477.778C669.622,478.967 670.268,480.05 671.087,480.977C672.878,483.004 675.496,484.283 678.41,484.283C683.802,484.283 688.18,479.905 688.18,474.512Z" style="fill:rgb(248,198,3);"/>
                    </g>
                </g>
                <g transform="matrix(0.438162,0,0,1.00444,450.271,-396.018)">
                    <text x="711.444px" y="897.29px" style="font-family:'ArialMT', 'Arial', sans-serif;font-size:147.392px;">B</text>
                    <g transform="matrix(150.906,0,0,150.906,1136.99,897.29)">
                    </g>
                    <text x="809.753px" y="897.29px" style="font-family:'ArialMT', 'Arial', sans-serif;font-size:150.906px;">anco</text>
                </g>
            </g>
        </g>
    </g>
</svg>
